<?xml version="1.0" encoding="UTF-8" standalone="no"?><svg xmlns:dc="http://purl.org/dc/elements/1.1/" xmlns:cc="http://creativecommons.org/ns#" xmlns:rdf="http://www.w3.org/1999/02/22-rdf-syntax-ns#" xmlns:svg="http://www.w3.org/2000/svg" xmlns="http://www.w3.org/2000/svg" xmlns:xlink="http://www.w3.org/1999/xlink" xmlns:sodipodi="http://sodipodi.sourceforge.net/DTD/sodipodi-0.dtd" xmlns:inkscape="http://www.inkscape.org/namespaces/inkscape" sodipodi:docname="largeIcons.svg" inkscape:version="1.0 (4035a4fb49, 2020-05-01)" version="1.1" id="svg2" height="48" width="48"><metadata id="metadata606"><rdf:RDF><cc:Work rdf:about=""><dc:format>image/svg+xml</dc:format><dc:type rdf:resource="http://purl.org/dc/dcmitype/StillImage" /><dc:title /></cc:Work></rdf:RDF></metadata><defs id="defs604"><rect x="0" y="-48" width="252" height="48" id="rect324" /><linearGradient gradientUnits="userSpaceOnUse" y2="17.6469" x2="10" y1="3" x1="10" id="paint0_linear"><stop id="stop307" stop-opacity="0" /><stop id="stop309" offset="1" /></linearGradient><linearGradient gradientUnits="userSpaceOnUse" y2="17.6469" x2="10" y1="3" x1="10" id="paint1_linear"><stop id="stop312" stop-color="white" /><stop id="stop314" stop-opacity="0" stop-color="white" offset="0.494792" /><stop id="stop316" stop-opacity="0" stop-color="white" offset="1" /></linearGradient></defs><g transform="translate(7,7)scale(2)" id="g340"><g id="g344" style="fill:none"><path transform="translate(0,0)" d="M 0,0 H 16 V 16 H 0 Z" id="path346" inkscape:connector-curvature="0" style="opacity:0.5" /><path transform="translate(0,0)" d="M 6,14 H 3.5 C 2.5,14 2,13.5 2,12.5 v -9 C 2,2.5 2.5,2 3.5,2 h 9 C 14,2 14,3.4678 14,3.5 V 6 H 13 V 3 H 3 v 10 h 3 z m 9,-5 -3,2 3,3 -1,1 -3,-3 -2,3 -2,-8 z" id="path348" inkscape:connector-curvature="0" style="fill:#7cacf8"/></g></g></svg>
